<?xml version="1.0" encoding="utf-8"?>
<!-- Generator: Adobe Illustrator 24.0.1, SVG Export Plug-In . SVG Version: 6.00 Build 0)  -->
<svg version="1.1" id="Layer_1" xmlns="http://www.w3.org/2000/svg" xmlns:xlink="http://www.w3.org/1999/xlink" x="0px" y="0px"
	 viewBox="0 0 127.8 147.6" style="enable-background:new 0 0 127.8 147.6;" xml:space="preserve">
<g>
	<path d="M99.8,37.1h-6.4C78.8,37.1,67,46.9,67,58.9v33.5c0,4,3.2,7.2,7.2,7.2h4.9l3.2,36.7c0,5.3,4.1,9.6,9.1,9.6h10.2
		c5.1,0,9.1-4.3,9.1-9.6l3.2-36.7h4.9c4,0,7.2-3.2,7.2-7.2V58.9C126.2,46.9,114.4,37.1,99.8,37.1L99.8,37.1z"/>
	<path d="M113,18.1c0,8.8-7.2,16-16,16s-16-7.2-16-16s7.2-16,16-16C105.8,2.2,113,9.3,113,18.1"/>
	<path d="M52.6,53.5c0-9.7-9.3-17.5-20.9-17.5h-5.1C15.1,36,5.7,43.9,5.7,53.5l2.4,13.1L1.2,89.8c0,7,5.1,13.3,11.7,17.1l2.5,28.7
		c0,5.1,4,9.2,8.8,9.2H34c4.9,0,8.8-4.1,8.8-9.2l2.5-28.7C51.9,103.1,57,96.8,57,89.8l-6.9-23.2L52.6,53.5z"/>
	<path d="M44.6,17.7c0,8.5-6.9,15.4-15.4,15.4s-15.4-6.9-15.4-15.4S20.7,2.3,29.2,2.3C37.7,2.2,44.6,9.1,44.6,17.7"/>
</g>
</svg>
